<svg width="80" height="80" viewBox="0 0 80 80" fill="none" xmlns="http://www.w3.org/2000/svg">
<circle cx="40" cy="40" r="40" fill="#E8412A"/>
<path d="M40.0001 34.6667V40.0001M40.0001 45.3334H40.0134M26.6667 35.3637V44.6364C26.6667 44.9625 26.6667 45.1256 26.7036 45.2791C26.7363 45.4151 26.7901 45.5452 26.8632 45.6645C26.9457 45.799 27.061 45.9143 27.2916 46.1449L33.8552 52.7086C34.0858 52.9392 34.2011 53.0545 34.3357 53.1369C34.455 53.21 34.5851 53.2639 34.7211 53.2966C34.8746 53.3334 35.0376 53.3334 35.3637 53.3334H44.6364C44.9625 53.3334 45.1256 53.3334 45.2791 53.2966C45.4151 53.2639 45.5452 53.21 45.6645 53.1369C45.799 53.0545 45.9143 52.9392 46.1449 52.7086L52.7086 46.1449C52.9392 45.9143 53.0545 45.799 53.1369 45.6645C53.21 45.5452 53.2639 45.4151 53.2966 45.2791C53.3334 45.1256 53.3334 44.9625 53.3334 44.6364V35.3637C53.3334 35.0376 53.3334 34.8746 53.2966 34.7211C53.2639 34.5851 53.21 34.455 53.1369 34.3357C53.0545 34.2011 52.9392 34.0858 52.7086 33.8552L46.1449 27.2916C45.9143 27.061 45.799 26.9457 45.6645 26.8632C45.5452 26.7901 45.4151 26.7363 45.2791 26.7036C45.1256 26.6667 44.9625 26.6667 44.6364 26.6667H35.3637C35.0376 26.6667 34.8746 26.6667 34.7211 26.7036C34.5851 26.7363 34.455 26.7901 34.3357 26.8632C34.2011 26.9457 34.0858 27.061 33.8552 27.2916L27.2916 33.8552C27.061 34.0858 26.9457 34.2011 26.8632 34.3357C26.7901 34.455 26.7363 34.5851 26.7036 34.7211C26.6667 34.8746 26.6667 35.0376 26.6667 35.3637Z" stroke="white" stroke-width="2" stroke-linecap="round" stroke-linejoin="round"/>
</svg>
