<svg width="164" height="164" viewBox="0 0 164 164" fill="none" xmlns="http://www.w3.org/2000/svg">
<path opacity="0.7" d="M157.238 82C160.973 82 164.029 78.9675 163.721 75.2458C162.402 59.2751 156.424 43.9859 146.457 31.3116C135.092 16.8599 119.201 6.64664 101.334 2.31184C83.4672 -2.02295 64.6621 -0.227763 47.9382 7.40914C31.2144 15.046 17.5422 28.0816 9.11701 44.4225C0.691848 60.7634 -1.99741 79.4616 1.48106 97.5145C4.95954 115.567 14.4039 131.928 28.2977 143.968C42.1914 156.009 59.7284 163.031 78.0925 163.907C94.1979 164.675 110.12 160.677 123.896 152.49C127.106 150.582 127.803 146.333 125.638 143.291C123.472 140.249 119.264 139.571 116.023 141.427C104.743 147.884 91.8125 151.023 78.7369 150.399C63.4014 149.667 48.7566 143.803 37.1542 133.749C25.5518 123.694 17.6649 110.032 14.7601 94.9559C11.8553 79.8802 14.1011 64.2657 21.1368 50.6197C28.1725 36.9737 39.5899 26.088 53.5556 19.7105C67.5214 13.3331 83.2252 11.834 98.1453 15.4539C113.065 19.0738 126.336 27.6027 135.827 39.6711C143.919 49.9609 148.862 62.3148 150.143 75.249C150.511 78.9652 153.504 82 157.238 82Z" fill="#312DFF"/>
</svg>
